<mxfile host="65bd71144e">
    <diagram name="Page-1" id="efa7a0a1-bf9b-a30e-e6df-94a7791c09e9">
        <mxGraphModel dx="1142" dy="519" grid="1" gridSize="10" guides="1" tooltips="1" connect="1" arrows="1" fold="1" page="1" pageScale="1" pageWidth="826" pageHeight="1169" background="none" math="0" shadow="0">
            <root>
                <mxCell id="0"/>
                <mxCell id="1" parent="0"/>
                <mxCell id="25" value="&lt;p style=&quot;text-align: center ; margin: 4px 0px 0px ; text-decoration: underline&quot;&gt;&lt;b&gt;使用者&lt;/b&gt;&lt;/p&gt;&lt;p style=&quot;text-align: center ; margin: 4px 0px 0px ; text-decoration: underline&quot;&gt;&lt;strong&gt;Users&lt;/strong&gt;&lt;/p&gt;&lt;hr&gt;&lt;p style=&quot;margin: 0px ; margin-left: 8px&quot;&gt;&lt;u&gt;userId&lt;/u&gt;&lt;/p&gt;&lt;p style=&quot;margin: 0px ; margin-left: 8px&quot;&gt;userName&lt;/p&gt;&lt;p style=&quot;margin: 0px 0px 0px 8px&quot;&gt;userPhone&lt;br&gt;&lt;/p&gt;&lt;p style=&quot;margin: 0px 0px 0px 8px&quot;&gt;userEmail&lt;/p&gt;&lt;p style=&quot;margin: 0px ; margin-left: 8px&quot;&gt;userAccount&lt;/p&gt;&lt;p style=&quot;margin: 0px ; margin-left: 8px&quot;&gt;userPassword&lt;/p&gt;&lt;p style=&quot;margin: 0px 0px 0px 8px&quot;&gt;userExpenience&lt;/p&gt;&lt;p style=&quot;margin: 0px 0px 0px 8px&quot;&gt;userPhoto&lt;br&gt;&lt;/p&gt;" style="verticalAlign=top;align=left;overflow=fill;fontSize=12;fontFamily=Times New Roman;html=1;strokeColor=#666666;shadow=1;fillColor=#f5f5f5;gradientColor=#b3b3b3;fontColor=#000000;" parent="1" vertex="1">
                    <mxGeometry x="-760" y="40" width="160" height="178.36" as="geometry"/>
                </mxCell>
                <mxCell id="5XHWenP0DDk_uuIquULA-114" value="&lt;p style=&quot;text-align: center ; margin: 4px 0px 0px ; text-decoration: underline&quot;&gt;&lt;b&gt;能力表&lt;/b&gt;&lt;/p&gt;&lt;p style=&quot;text-align: center ; margin: 4px 0px 0px ; text-decoration: underline&quot;&gt;&lt;strong&gt;UserStats&lt;/strong&gt;&lt;/p&gt;&lt;hr&gt;&lt;p style=&quot;margin: 0px ; margin-left: 8px&quot;&gt;&lt;u&gt;userId&lt;/u&gt;&lt;/p&gt;&lt;p style=&quot;margin: 0px ; margin-left: 8px&quot;&gt;leadership&lt;/p&gt;&lt;p style=&quot;margin: 0px ; margin-left: 8px&quot;&gt;teamwork&lt;/p&gt;&lt;p style=&quot;margin: 0px ; margin-left: 8px&quot;&gt;strength&lt;/p&gt;&lt;p style=&quot;margin: 0px ; margin-left: 8px&quot;&gt;heal&lt;/p&gt;&lt;p style=&quot;margin: 0px ; margin-left: 8px&quot;&gt;surriral&lt;/p&gt;&lt;p style=&quot;margin: 0px ; margin-left: 8px&quot;&gt;direction&lt;/p&gt;&lt;p style=&quot;margin: 0px ; margin-left: 8px&quot;&gt;commentCount&lt;/p&gt;" style="verticalAlign=top;align=left;overflow=fill;fontSize=12;fontFamily=Times New Roman;html=1;strokeColor=#666666;shadow=1;fillColor=#f5f5f5;gradientColor=#b3b3b3;fontColor=#000000;" parent="1" vertex="1">
                    <mxGeometry x="-760" y="280" width="160" height="178.36" as="geometry"/>
                </mxCell>
                <mxCell id="5XHWenP0DDk_uuIquULA-115" value="" style="endArrow=classic;html=1;rounded=0;fontFamily=Times New Roman;entryX=-0.008;entryY=0.328;entryDx=0;entryDy=0;entryPerimeter=0;fontStyle=0" parent="1" target="5XHWenP0DDk_uuIquULA-114" edge="1">
                    <mxGeometry width="50" height="50" relative="1" as="geometry">
                        <mxPoint x="-761" y="100" as="sourcePoint"/>
                        <mxPoint x="-580" y="180" as="targetPoint"/>
                        <Array as="points">
                            <mxPoint x="-800" y="100"/>
                            <mxPoint x="-800" y="339"/>
                        </Array>
                    </mxGeometry>
                </mxCell>
                <mxCell id="5XHWenP0DDk_uuIquULA-118" value="&lt;p style=&quot;text-align: center ; margin: 4px 0px 0px ; text-decoration: underline&quot;&gt;&lt;b&gt;行程管理聊天室&lt;/b&gt;&lt;/p&gt;&lt;p style=&quot;text-align: center ; margin: 4px 0px 0px ; text-decoration: underline&quot;&gt;&lt;strong&gt;TripMessageBoards&lt;/strong&gt;&lt;/p&gt;&lt;hr&gt;&lt;p style=&quot;margin: 0px ; margin-left: 8px&quot;&gt;&lt;u&gt;tripId&lt;/u&gt;&lt;/p&gt;&lt;p style=&quot;margin: 0px ; margin-left: 8px&quot;&gt;userId&lt;/p&gt;&lt;p style=&quot;margin: 0px ; margin-left: 8px&quot;&gt;tripMessageTime&lt;/p&gt;&lt;p style=&quot;margin: 0px ; margin-left: 8px&quot;&gt;tripMessageText&lt;/p&gt;&lt;p style=&quot;margin: 0px ; margin-left: 8px&quot;&gt;tripMessageImg&lt;/p&gt;" style="verticalAlign=top;align=left;overflow=fill;fontSize=12;fontFamily=Times New Roman;html=1;strokeColor=#666666;shadow=1;fillColor=#f5f5f5;gradientColor=#b3b3b3;fontColor=#000000;" parent="1" vertex="1">
                    <mxGeometry x="-760" y="520" width="160" height="140" as="geometry"/>
                </mxCell>
                <mxCell id="5XHWenP0DDk_uuIquULA-129" value="" style="endArrow=classic;html=1;rounded=0;fontFamily=Times New Roman;entryX=-0.004;entryY=0.527;entryDx=0;entryDy=0;entryPerimeter=0;fontStyle=0" parent="1" edge="1">
                    <mxGeometry width="50" height="50" relative="1" as="geometry">
                        <mxPoint x="-800" y="339" as="sourcePoint"/>
                        <mxPoint x="-761.64" y="592.7800000000001" as="targetPoint"/>
                        <Array as="points">
                            <mxPoint x="-800" y="593"/>
                        </Array>
                    </mxGeometry>
                </mxCell>
                <mxCell id="26" value="&lt;p style=&quot;text-align: center ; margin: 4px 0px 0px ; text-decoration: underline&quot;&gt;&lt;b&gt;私人裝備&lt;/b&gt;&lt;/p&gt;&lt;p style=&quot;text-align: center ; margin: 4px 0px 0px ; text-decoration: underline&quot;&gt;&lt;strong&gt;PrivateItems&lt;/strong&gt;&lt;/p&gt;&lt;hr&gt;&lt;p style=&quot;margin: 0px ; margin-left: 8px&quot;&gt;&lt;u&gt;tripId&lt;/u&gt;&lt;/p&gt;&lt;p style=&quot;margin: 0px ; margin-left: 8px&quot;&gt;privateItemName&lt;/p&gt;&lt;p style=&quot;margin: 0px ; margin-left: 8px&quot;&gt;privateItemCount&lt;br&gt;&lt;/p&gt;&lt;p style=&quot;margin: 0px ; margin-left: 8px&quot;&gt;privateItemNote&lt;br&gt;&lt;/p&gt;" style="verticalAlign=top;align=left;overflow=fill;fontSize=12;fontFamily=Times New Roman;html=1;strokeColor=#666666;shadow=1;fillColor=#f5f5f5;gradientColor=#b3b3b3;fontColor=#000000;" parent="1" vertex="1">
                    <mxGeometry x="-280" y="40" width="160" height="120" as="geometry"/>
                </mxCell>
                <mxCell id="27" value="&lt;p style=&quot;text-align: center ; margin: 4px 0px 0px ; text-decoration: underline&quot;&gt;&lt;b&gt;公用裝備&lt;/b&gt;&lt;/p&gt;&lt;p style=&quot;text-align: center ; margin: 4px 0px 0px ; text-decoration: underline&quot;&gt;&lt;strong&gt;ShareItems&lt;/strong&gt;&lt;/p&gt;&lt;hr&gt;&lt;p style=&quot;margin: 0px ; margin-left: 8px&quot;&gt;&lt;u&gt;tripId&lt;/u&gt;&lt;/p&gt;&lt;p style=&quot;margin: 0px ; margin-left: 8px&quot;&gt;sharedItemName&lt;/p&gt;&lt;p style=&quot;margin: 0px ; margin-left: 8px&quot;&gt;sharedItemCount&lt;/p&gt;&lt;p style=&quot;margin: 0px ; margin-left: 8px&quot;&gt;userId&lt;/p&gt;" style="verticalAlign=top;align=left;overflow=fill;fontSize=12;fontFamily=Times New Roman;html=1;strokeColor=#666666;shadow=1;fillColor=#f5f5f5;gradientColor=#b3b3b3;fontColor=#000000;" parent="1" vertex="1">
                    <mxGeometry x="-280" y="218.36" width="160" height="120" as="geometry"/>
                </mxCell>
                <mxCell id="28" value="&lt;p style=&quot;text-align: center ; margin: 4px 0px 0px ; text-decoration: underline&quot;&gt;景點&lt;/p&gt;&lt;p style=&quot;text-align: center ; margin: 4px 0px 0px ; text-decoration: underline&quot;&gt;&lt;strong&gt;Spots&lt;/strong&gt;&lt;/p&gt;&lt;hr&gt;&lt;p style=&quot;margin: 0px ; margin-left: 8px&quot;&gt;&lt;u&gt;spotId&lt;/u&gt;&lt;/p&gt;&lt;p style=&quot;margin: 0px ; margin-left: 8px&quot;&gt;spotName&lt;/p&gt;&lt;p style=&quot;margin: 0px ; margin-left: 8px&quot;&gt;spotCoordinate&lt;/p&gt;&lt;p style=&quot;margin: 0px ; margin-left: 8px&quot;&gt;spotDetail&lt;/p&gt;&lt;p style=&quot;margin: 0px ; margin-left: 8px&quot;&gt;spotImg&lt;/p&gt;&lt;p style=&quot;margin: 0px ; margin-left: 8px&quot;&gt;spotArea&lt;/p&gt;" style="verticalAlign=top;align=left;overflow=fill;fontSize=12;fontFamily=Times New Roman;html=1;strokeColor=#666666;shadow=1;fillColor=#f5f5f5;gradientColor=#b3b3b3;fontColor=#000000;" parent="1" vertex="1">
                    <mxGeometry x="-280" y="400" width="160" height="150" as="geometry"/>
                </mxCell>
                <mxCell id="29" value="&lt;p style=&quot;text-align: center ; margin: 4px 0px 0px ; text-decoration: underline&quot;&gt;景點留言板&lt;/p&gt;&lt;p style=&quot;text-align: center ; margin: 4px 0px 0px ; text-decoration: underline&quot;&gt;&lt;b&gt;SpotMessageBoards&lt;/b&gt;&lt;/p&gt;&lt;hr&gt;&lt;p style=&quot;margin: 0px ; margin-left: 8px&quot;&gt;&lt;u&gt;spotId&lt;/u&gt;&lt;/p&gt;&lt;p style=&quot;margin: 0px ; margin-left: 8px&quot;&gt;userId&lt;/p&gt;&lt;p style=&quot;margin: 0px ; margin-left: 8px&quot;&gt;spotMessageDate&lt;/p&gt;&lt;p style=&quot;margin: 0px ; margin-left: 8px&quot;&gt;spotMessageText&lt;/p&gt;&lt;p style=&quot;margin: 0px ; margin-left: 8px&quot;&gt;spotMessageImg&lt;/p&gt;" style="verticalAlign=top;align=left;overflow=fill;fontSize=12;fontFamily=Times New Roman;html=1;strokeColor=#666666;shadow=1;fillColor=#f5f5f5;gradientColor=#b3b3b3;fontColor=#000000;" parent="1" vertex="1">
                    <mxGeometry x="-280" y="600" width="160" height="140" as="geometry"/>
                </mxCell>
                <mxCell id="30" value="&lt;p style=&quot;text-align: center ; margin: 4px 0px 0px ; text-decoration: underline&quot;&gt;行程詳情&lt;/p&gt;&lt;p style=&quot;text-align: center ; margin: 4px 0px 0px ; text-decoration: underline&quot;&gt;&lt;b&gt;Trips&lt;/b&gt;&lt;/p&gt;&lt;hr&gt;&lt;p style=&quot;margin: 0px ; margin-left: 8px&quot;&gt;&lt;u&gt;tripId&lt;/u&gt;&lt;/p&gt;&lt;p style=&quot;margin: 0px ; margin-left: 8px&quot;&gt;tripName&lt;/p&gt;&lt;p style=&quot;margin: 0px ; margin-left: 8px&quot;&gt;spotId&lt;/p&gt;&lt;p style=&quot;margin: 0px ; margin-left: 8px&quot;&gt;tripStartDate&lt;/p&gt;&lt;p style=&quot;margin: 0px ; margin-left: 8px&quot;&gt;tripEndDate&lt;/p&gt;&lt;p style=&quot;margin: 0px ; margin-left: 8px&quot;&gt;tripNote&lt;/p&gt;" style="verticalAlign=top;align=left;overflow=fill;fontSize=12;fontFamily=Times New Roman;html=1;strokeColor=#666666;shadow=1;fillColor=#f5f5f5;gradientColor=#b3b3b3;fontColor=#000000;" parent="1" vertex="1">
                    <mxGeometry x="-520" y="40" width="160" height="150" as="geometry"/>
                </mxCell>
                <mxCell id="31" value="&lt;p style=&quot;text-align: center ; margin: 4px 0px 0px ; text-decoration: underline&quot;&gt;行程表&lt;/p&gt;&lt;p style=&quot;text-align: center ; margin: 4px 0px 0px ; text-decoration: underline&quot;&gt;&lt;b&gt;TripSchedules&lt;/b&gt;&lt;/p&gt;&lt;hr&gt;&lt;p style=&quot;margin: 0px ; margin-left: 8px&quot;&gt;&lt;u&gt;tripId&lt;/u&gt;&lt;/p&gt;&lt;p style=&quot;margin: 0px ; margin-left: 8px&quot;&gt;day&lt;/p&gt;&lt;p style=&quot;margin: 0px ; margin-left: 8px&quot;&gt;startTime&lt;/p&gt;&lt;p style=&quot;margin: 0px ; margin-left: 8px&quot;&gt;endTime&lt;/p&gt;&lt;p style=&quot;margin: 0px ; margin-left: 8px&quot;&gt;schedule&lt;/p&gt;" style="verticalAlign=top;align=left;overflow=fill;fontSize=12;fontFamily=Times New Roman;html=1;strokeColor=#666666;shadow=1;fillColor=#f5f5f5;gradientColor=#b3b3b3;fontColor=#000000;" parent="1" vertex="1">
                    <mxGeometry x="-520" y="240" width="160" height="140" as="geometry"/>
                </mxCell>
                <mxCell id="32" value="&lt;p style=&quot;text-align: center ; margin: 4px 0px 0px ; text-decoration: underline&quot;&gt;行程成員&lt;/p&gt;&lt;p style=&quot;text-align: center ; margin: 4px 0px 0px ; text-decoration: underline&quot;&gt;&lt;b&gt;TripMembers&lt;/b&gt;&lt;/p&gt;&lt;hr&gt;&lt;p style=&quot;margin: 0px ; margin-left: 8px&quot;&gt;&lt;u&gt;tripId&lt;/u&gt;&lt;/p&gt;&lt;p style=&quot;margin: 0px ; margin-left: 8px&quot;&gt;userId&lt;/p&gt;&lt;p style=&quot;margin: 0px ; margin-left: 8px&quot;&gt;positionState&lt;/p&gt;" style="verticalAlign=top;align=left;overflow=fill;fontSize=12;fontFamily=Times New Roman;html=1;strokeColor=#666666;shadow=1;fillColor=#f5f5f5;gradientColor=#b3b3b3;fontColor=#000000;" parent="1" vertex="1">
                    <mxGeometry x="-520" y="440" width="160" height="110" as="geometry"/>
                </mxCell>
                <mxCell id="33" value="" style="endArrow=classic;html=1;rounded=0;fontFamily=Times New Roman;fillColor=#b0e3e6;strokeColor=#0e8088;fontStyle=0" parent="1" edge="1">
                    <mxGeometry width="50" height="50" relative="1" as="geometry">
                        <mxPoint x="-520" y="99.36" as="sourcePoint"/>
                        <mxPoint x="-520" y="300" as="targetPoint"/>
                        <Array as="points">
                            <mxPoint x="-559" y="99.36"/>
                            <mxPoint x="-559" y="300"/>
                        </Array>
                    </mxGeometry>
                </mxCell>
                <mxCell id="34" value="" style="endArrow=classic;html=1;rounded=0;fontFamily=Times New Roman;entryX=-0.011;entryY=0.542;entryDx=0;entryDy=0;entryPerimeter=0;fillColor=#b0e3e6;strokeColor=#0e8088;fontStyle=0" parent="1" target="32" edge="1">
                    <mxGeometry width="50" height="50" relative="1" as="geometry">
                        <mxPoint x="-559" y="300" as="sourcePoint"/>
                        <mxPoint x="-520" y="510" as="targetPoint"/>
                        <Array as="points">
                            <mxPoint x="-559" y="309.36"/>
                            <mxPoint x="-559" y="500"/>
                        </Array>
                    </mxGeometry>
                </mxCell>
                <mxCell id="36" value="" style="endArrow=classic;html=1;rounded=0;fontFamily=Times New Roman;entryX=-0.019;entryY=0.673;entryDx=0;entryDy=0;entryPerimeter=0;fontStyle=0" parent="1" target="32" edge="1">
                    <mxGeometry width="50" height="50" relative="1" as="geometry">
                        <mxPoint x="-800" y="593" as="sourcePoint"/>
                        <mxPoint x="-530" y="700" as="targetPoint"/>
                        <Array as="points">
                            <mxPoint x="-800" y="700"/>
                            <mxPoint x="-550" y="700"/>
                            <mxPoint x="-550" y="514"/>
                        </Array>
                    </mxGeometry>
                </mxCell>
                <mxCell id="38" value="" style="endArrow=classic;html=1;fontColor=#000000;entryX=0;entryY=0.5;entryDx=0;entryDy=0;rounded=0;fillColor=#b0e3e6;strokeColor=#0e8088;fontStyle=0" parent="1" edge="1">
                    <mxGeometry width="50" height="50" relative="1" as="geometry">
                        <mxPoint x="-559" y="100" as="sourcePoint"/>
                        <mxPoint x="-279" y="100" as="targetPoint"/>
                        <Array as="points">
                            <mxPoint x="-559" y="30"/>
                            <mxPoint x="-299" y="30"/>
                            <mxPoint x="-299" y="100"/>
                        </Array>
                    </mxGeometry>
                </mxCell>
                <mxCell id="40" value="" style="endArrow=classic;html=1;rounded=0;fontColor=#000000;entryX=-0.005;entryY=0.495;entryDx=0;entryDy=0;entryPerimeter=0;fillColor=#b0e3e6;strokeColor=#0e8088;fontStyle=0" parent="1" edge="1">
                    <mxGeometry width="50" height="50" relative="1" as="geometry">
                        <mxPoint x="-299" y="100" as="sourcePoint"/>
                        <mxPoint x="-279.80000000000007" y="277.76" as="targetPoint"/>
                        <Array as="points">
                            <mxPoint x="-299" y="278"/>
                        </Array>
                    </mxGeometry>
                </mxCell>
                <mxCell id="41" value="" style="endArrow=classic;html=1;rounded=0;fontColor=#000000;entryX=-0.018;entryY=0.837;entryDx=0;entryDy=0;entryPerimeter=0;fontStyle=0" parent="1" target="27" edge="1">
                    <mxGeometry width="50" height="50" relative="1" as="geometry">
                        <mxPoint x="-550" y="580" as="sourcePoint"/>
                        <mxPoint x="-330" y="480" as="targetPoint"/>
                        <Array as="points">
                            <mxPoint x="-320" y="580"/>
                            <mxPoint x="-320" y="319"/>
                        </Array>
                    </mxGeometry>
                </mxCell>
                <mxCell id="42" value="" style="endArrow=classic;html=1;rounded=0;fontColor=#000000;exitX=-0.006;exitY=0.397;exitDx=0;exitDy=0;exitPerimeter=0;fillColor=#fad9d5;strokeColor=#ae4132;fontStyle=0" parent="1" source="28" edge="1">
                    <mxGeometry width="50" height="50" relative="1" as="geometry">
                        <mxPoint x="-290" y="460" as="sourcePoint"/>
                        <mxPoint x="-281" y="660" as="targetPoint"/>
                        <Array as="points">
                            <mxPoint x="-300" y="460"/>
                            <mxPoint x="-300" y="660"/>
                        </Array>
                    </mxGeometry>
                </mxCell>
                <mxCell id="43" value="" style="endArrow=classic;html=1;rounded=0;fontColor=#000000;entryX=-0.004;entryY=0.53;entryDx=0;entryDy=0;entryPerimeter=0;fontStyle=0" parent="1" target="29" edge="1">
                    <mxGeometry width="50" height="50" relative="1" as="geometry">
                        <mxPoint x="-320" y="580" as="sourcePoint"/>
                        <mxPoint x="-290" y="610" as="targetPoint"/>
                        <Array as="points">
                            <mxPoint x="-320" y="674"/>
                        </Array>
                    </mxGeometry>
                </mxCell>
                <mxCell id="44" value="" style="endArrow=classic;html=1;rounded=0;fontColor=#000000;entryX=-0.01;entryY=0.422;entryDx=0;entryDy=0;entryPerimeter=0;fillColor=#b0e3e6;strokeColor=#0e8088;fontStyle=0" parent="1" target="5XHWenP0DDk_uuIquULA-118" edge="1">
                    <mxGeometry width="50" height="50" relative="1" as="geometry">
                        <mxPoint x="-560" y="500" as="sourcePoint"/>
                        <mxPoint x="-780" y="500" as="targetPoint"/>
                        <Array as="points">
                            <mxPoint x="-780" y="500"/>
                            <mxPoint x="-780" y="579"/>
                        </Array>
                    </mxGeometry>
                </mxCell>
                <mxCell id="46" value="" style="endArrow=classic;html=1;entryX=0.009;entryY=0.593;entryDx=0;entryDy=0;entryPerimeter=0;rounded=0;fillColor=#fad9d5;strokeColor=#ae4132;fontStyle=0" parent="1" target="30" edge="1">
                    <mxGeometry width="50" height="50" relative="1" as="geometry">
                        <mxPoint x="-300" y="460" as="sourcePoint"/>
                        <mxPoint x="-540" y="190" as="targetPoint"/>
                        <Array as="points">
                            <mxPoint x="-340" y="460"/>
                            <mxPoint x="-340" y="220"/>
                            <mxPoint x="-540" y="220"/>
                            <mxPoint x="-540" y="129"/>
                        </Array>
                    </mxGeometry>
                </mxCell>
            </root>
        </mxGraphModel>
    </diagram>
</mxfile>